<svg width="12" height="12" viewBox="0 0 12 12" fill="none" xmlns="http://www.w3.org/2000/svg">
<path d="M8.5649 1.4178C8.69736 1.28534 8.85461 1.18027 9.02767 1.10858C9.20074 1.0369 9.38623 1 9.57355 1C9.76087 1 9.94636 1.0369 10.1194 1.10858C10.2925 1.18027 10.4497 1.28534 10.5822 1.4178C10.7147 1.55026 10.8197 1.70751 10.8914 1.88057C10.9631 2.05364 11 2.23913 11 2.42645C11 2.61377 10.9631 2.79926 10.8914 2.97233C10.8197 3.14539 10.7147 3.30265 10.5822 3.4351L3.7738 10.2435L1 11L1.75649 8.22621L8.5649 1.4178Z" stroke="#B880FF" stroke-linecap="round" stroke-linejoin="round"/>
</svg>
