<svg width="10" height="10" viewBox="0 0 10 10" fill="none" xmlns="http://www.w3.org/2000/svg">
<path d="M1 2.3H1.88889M1.88889 2.3H9M1.88889 2.3V8.6C1.88889 8.83869 1.98254 9.06761 2.14924 9.2364C2.31594 9.40518 2.54203 9.5 2.77778 9.5H7.22222C7.45797 9.5 7.68406 9.40518 7.85076 9.2364C8.01746 9.06761 8.11111 8.83869 8.11111 8.6V2.3M3.22222 2.3V1.4C3.22222 1.16131 3.31587 0.932387 3.48257 0.763604C3.64927 0.594821 3.87536 0.5 4.11111 0.5H5.88889C6.12464 0.5 6.35073 0.594821 6.51743 0.763604C6.68413 0.932387 6.77778 1.16131 6.77778 1.4V2.3" stroke="#B50000" stroke-linecap="round" stroke-linejoin="round"/>
</svg>
