<svg width="23" height="23" viewBox="0 0 23 23" fill="none" xmlns="http://www.w3.org/2000/svg">
<path d="M20.2247 15.3932C19.5885 16.8981 18.5935 18.2241 17.3266 19.2554C16.0597 20.2868 14.5595 20.992 12.9572 21.3094C11.3549 21.6268 9.6993 21.5468 8.13505 21.0764C6.57081 20.6059 5.14559 19.7593 3.98401 18.6107C2.82243 17.462 1.95985 16.0462 1.47168 14.487C0.983508 12.9278 0.884616 11.2728 1.18365 9.66654C1.48268 8.06031 2.17052 6.55181 3.18705 5.27291C4.20358 3.99401 5.51784 2.98366 7.01493 2.33019M21.0146 11.5023C21.0146 10.1888 20.756 8.88815 20.2535 7.67461C19.7509 6.46107 19.0143 5.35842 18.0858 4.42962C17.1572 3.50081 16.0548 2.76405 14.8416 2.26138C13.6284 1.75872 12.328 1.5 11.0148 1.5V11.5023H21.0146Z" stroke="#B880FF" stroke-width="2" stroke-linecap="round" stroke-linejoin="round"/>
</svg>
